<svg xmlns="http://www.w3.org/2000/svg" viewBox="0 0 256 256">
  <defs>
    <linearGradient id="fundo" x1="28" y1="20" x2="225" y2="239" gradientUnits="userSpaceOnUse">
      <stop stop-color="#5A9BFF"/>
      <stop offset=".52" stop-color="#7C6FFF"/>
      <stop offset="1" stop-color="#A15EF2"/>
    </linearGradient>
    <filter id="sombra" x="-30%" y="-30%" width="160%" height="160%">
      <feDropShadow dx="0" dy="10" stdDeviation="12" flood-color="#111827" flood-opacity=".24"/>
    </filter>
  </defs>
  <rect x="16" y="16" width="224" height="224" rx="58" fill="url(#fundo)" filter="url(#sombra)"/>
  <path d="M66 70h124a18 18 0 0 1 18 18v76a18 18 0 0 1-18 18h-58l-35 28v-28H66a18 18 0 0 1-18-18V88a18 18 0 0 1 18-18Z"
        fill="none" stroke="#fff" stroke-width="13" stroke-linejoin="round"/>
  <circle cx="88" cy="126" r="9" fill="#fff"/>
  <circle cx="128" cy="126" r="9" fill="#fff"/>
  <circle cx="168" cy="126" r="9" fill="#fff"/>
</svg>
